# xmcd CD database file
#
# Track frame offsets:
#	150
#	18697
#	33860
#	55917
#	78697
#	97297
#	123785
#	142897
#	164532
#	183350
#	195782
#	219542
#	231765
#
# Disc length: 3371 seconds
#
# Revision: 0
# Processed by: cddbd v1.5.1PL2 Copyright (c) Steve Scherf et al.
# Submitted via: CDex 1.51
#
DISCID=ad0d290d
DTITLE=Gerry Gillard - Taking A Chance
DYEAR=1996
DGENRE=Blues
TTITLE0=The Blues Inside
TTITLE1=Flying South
TTITLE2=Taking A Chance
TTITLE3=Walking On Air
TTITLE4=Take A Look Around
TTITLE5=Halvasso Mist
TTITLE6=Changes
TTITLE7=Snow Chaser
TTITLE8=When The Night Comes
TTITLE9=Pixies Hall
TTITLE10=For You
TTITLE11=The Barflyz
TTITLE12=Drusillas Theme
EXTD=YEAR: 1996
EXTT0=
EXTT1=
EXTT2=
EXTT3=
EXTT4=
EXTT5=
EXTT6=
EXTT7=
EXTT8=
EXTT9=
EXTT10=
EXTT11=
EXTT12=
PLAYORDER=
